<svg xmlns="http://www.w3.org/2000/svg" viewBox="0 0 1024 1024" width="1024" height="1024">

  <defs>
    <linearGradient id="bg" x1="160" y1="80" x2="880" y2="944" gradientUnits="userSpaceOnUse">
      <stop offset="0" stop-color="#111a3f"/>
      <stop offset="0.45" stop-color="#321b72"/>
      <stop offset="1" stop-color="#050814"/>
    </linearGradient>
    <radialGradient id="aura1" cx="34%" cy="24%" r="62%">
      <stop offset="0" stop-color="#62f4ff" stop-opacity="0.88"/>
      <stop offset="0.42" stop-color="#7b61ff" stop-opacity="0.34"/>
      <stop offset="1" stop-color="#7b61ff" stop-opacity="0"/>
    </radialGradient>
    <radialGradient id="aura2" cx="70%" cy="76%" r="58%">
      <stop offset="0" stop-color="#ff7adf" stop-opacity="0.72"/>
      <stop offset="0.38" stop-color="#a855f7" stop-opacity="0.28"/>
      <stop offset="1" stop-color="#a855f7" stop-opacity="0"/>
    </radialGradient>
    <linearGradient id="stroke" x1="238" y1="188" x2="820" y2="856" gradientUnits="userSpaceOnUse">
      <stop offset="0" stop-color="#84f7ff"/>
      <stop offset="0.48" stop-color="#b9a7ff"/>
      <stop offset="1" stop-color="#ff8bd8"/>
    </linearGradient>
    <linearGradient id="whiteGlass" x1="314" y1="188" x2="690" y2="814" gradientUnits="userSpaceOnUse">
      <stop offset="0" stop-color="#ffffff"/>
      <stop offset="1" stop-color="#d7e3ff"/>
    </linearGradient>
    <filter id="softShadow" x="-20%" y="-20%" width="140%" height="140%">
      <feDropShadow dx="0" dy="32" stdDeviation="34" flood-color="#000000" flood-opacity="0.38"/>
    </filter>
    <filter id="glow" x="-35%" y="-35%" width="170%" height="170%">
      <feGaussianBlur stdDeviation="12" result="blur"/>
      <feMerge>
        <feMergeNode in="blur"/>
        <feMergeNode in="SourceGraphic"/>
      </feMerge>
    </filter>
    <clipPath id="clipRound"><rect x="64" y="64" width="896" height="896" rx="218"/></clipPath>
  </defs>


  <g clip-path="url(#clipRound)">
    <rect x="64" y="64" width="896" height="896" rx="218" fill="url(#bg)"/>
    <rect x="64" y="64" width="896" height="896" rx="218" fill="url(#aura1)"/>
    <rect x="64" y="64" width="896" height="896" rx="218" fill="url(#aura2)"/>
    <path d="M118 794C282 686 420 710 570 770C728 833 850 792 954 680V960H118Z" fill="#101936" opacity="0.5"/>
    <circle cx="820" cy="190" r="104" fill="#ffffff" opacity="0.05"/>
    <circle cx="212" cy="770" r="140" fill="#ffffff" opacity="0.035"/>
  </g>
  <rect x="64" y="64" width="896" height="896" rx="218" fill="none" stroke="#ffffff" stroke-opacity="0.18" stroke-width="3"/>


  <g filter="url(#softShadow)">
    <path d="M512 184C326 184 176 332 176 514C176 696 326 844 512 844C698 844 848 696 848 514C848 332 698 184 512 184Z" fill="none" stroke="url(#stroke)" stroke-width="34" opacity="0.92"/>
    <path d="M250 594C324 726 466 778 606 732C728 692 796 598 800 486" fill="none" stroke="#ffffff" stroke-width="10" stroke-opacity="0.22" stroke-linecap="round"/>
    <path d="M350 726L500 286C504 274 521 274 525 286L676 726" fill="none" stroke="url(#whiteGlass)" stroke-width="72" stroke-linecap="round" stroke-linejoin="round"/>
    <path d="M418 574H606" fill="none" stroke="url(#whiteGlass)" stroke-width="60" stroke-linecap="round"/>
    <path d="M512 322L445 520H579Z" fill="#ffffff" opacity="0.10"/>
  </g>
  <circle cx="728" cy="300" r="28" fill="#7df7ff" filter="url(#glow)"/>

</svg>